<?xml version="1.0" encoding="UTF-8"?><svg id="a" xmlns="http://www.w3.org/2000/svg" viewBox="0 0 40 40"><defs><style>.b{fill:#231f20;font-family:Arial-Black, 'Arial Black';font-size:12px;font-weight:800;stroke-width:.5px;}.b,.c,.d{stroke:#fff;stroke-miterlimit:10;}.c{stroke-width:1.14px;}.c,.d{fill:#ed1c24;}.e{letter-spacing:-.02em;}.d{stroke-width:1.28px;}</style></defs><path class="c" d="m25.3,22.38c-.12.73-.32,1.13-.61,1.19-.41.1-1.19,0-2.34-.33-1.22-.34-1.91-.68-2.08-1.02-.05-.12-.08-.25-.08-.38,0-.1.02-.27.06-.5s.06-.42.06-.57v-11.53c-.8,1.56-1.84,5.06-3.13,10.52-.02.07-.03.14-.03.23,0,.17.03.44.09.81.06.37.09.61.09.71-.02.53-.04.86-.08,1.02-.08.34-.26.54-.53.61-.17.05-.47.08-.89.08-2.2,0-3.72-.38-4.55-1.14-.14-.12-.19-.33-.15-.63.03-.37.03-.62,0-.74-.63-1.93-1.19-3.62-1.68-5.08-1.19-3.52-1.96-5.6-2.31-6.22v10.11c0,.22.07.53.2.91.17.47.26.77.28.89.07.34.08.75.05,1.22-.03.57-.15.93-.36,1.07-.1.07-.3.1-.59.1-.63,0-1.37-.11-2.23-.33-.93-.22-1.48-.45-1.65-.69-.08-.12-.13-.26-.13-.43,0-.1.03-.27.09-.51.06-.24.09-.42.09-.56V3.17c0-.2.08-.44.25-.7s.36-.44.58-.52c.29-.12,1.4.08,3.33.61,2.01.53,3.08.98,3.2,1.37.05.15.06.36.03.61-.05.36-.08.57-.08.63,0,.15.03.29.08.41l3.43,9.22c.47-1.51,1.34-4.56,2.59-9.17.63-2.35,1.14-3.58,1.52-3.68.12-.03.25-.05.41-.05.29,0,.77.08,1.45.23.75.19,1.26.29,1.55.3,1.34.12,2.11.19,2.31.23.8.15,1.24.43,1.35.84.03.12.05.25.05.38,0,.17-.04.41-.13.72-.08.31-.13.55-.13.7v15.55c0,.17.11.42.32.76.21.34.3.59.27.76Z"/><path class="d" d="m37.95,29.3c-.06.48-.24.86-.54,1.14-.55,1.18-1.4,2.37-2.54,3.57-1.24,1.28-2.24,1.91-3,1.91-.11,0-.22-.01-.31-.03-.84-.27-1.78-.6-2.83-1-1.87-.76-3.29-2.22-4.29-4.37-.88-1.94-1.31-4.2-1.31-6.77,0-3.14.6-5.91,1.8-8.31,1.28-2.55,2.88-3.88,4.8-3.97.74-.04,1.83.34,3.27,1.14,1.44.8,2.39,1.6,2.84,2.39.46.79.77,2.52.94,5.19.04.57-.04,1.15-.23,1.74-.23.71-.52,1.03-.89.97-.67-.1-1.5-.3-2.51-.63-1.22-.4-1.88-.73-1.97-1-.04-.1-.06-.18-.06-.26,0-.17.08-.39.24-.64s.24-.47.24-.64c.09-.78.14-1.51.14-2.2,0-.99-.11-1.68-.34-2.06-1.14.84-2.01,2.24-2.6,4.2-.5,1.66-.74,3.53-.74,5.63,0,1.62.14,3.06.43,4.33s.63,2.03,1.03,2.3c.19.11.72-.27,1.58-1.16.87-.89,1.43-1.6,1.67-2.13.02-.02.1-.32.26-.91.11-.34.27-.55.46-.63.32-.12,1.16.16,2.5.81,1.34.66,2,1.12,1.96,1.39Z"/><text class="b" transform="translate(5.06 31.24)"><tspan x="0" y="0">p</tspan><tspan class="e" x="8" y="0">a</tspan><tspan x="15.8" y="0">th</tspan></text></svg>