<?xml version="1.0" encoding="UTF-8"?><svg id="a" xmlns="http://www.w3.org/2000/svg" viewBox="0 0 40 40"><defs><style>.b{stroke-width:.4px;}.b,.c,.d{stroke:#fff;stroke-miterlimit:10;}.b,.d{fill:#231f20;}.c{fill:#ee1c4e;}.c,.d{stroke-width:.25px;}</style></defs><g><path class="b" d="m3.22,28.77c0-1.2-.04-2.17-.08-3.07h1.53l.08,1.61h.04c.7-1.14,1.81-1.82,3.34-1.82,2.27,0,3.98,1.92,3.98,4.78,0,3.38-2.06,5.05-4.27,5.05-1.24,0-2.33-.54-2.89-1.47h-.04v5.11h-1.69v-10.17Zm1.69,2.51c0,.25.04.49.08.7.31,1.18,1.34,2,2.56,2,1.81,0,2.85-1.48,2.85-3.63,0-1.88-.99-3.49-2.8-3.49-1.16,0-2.25.84-2.58,2.12-.06.21-.12.47-.12.7v1.61Z"/><path class="b" d="m19.48,35.09l-.14-1.18h-.06c-.52.74-1.53,1.4-2.87,1.4-1.9,0-2.87-1.34-2.87-2.7,0-2.27,2.02-3.51,5.65-3.49v-.19c0-.78-.21-2.18-2.14-2.18-.87,0-1.79.27-2.45.7l-.39-1.13c.78-.5,1.9-.83,3.09-.83,2.87,0,3.57,1.96,3.57,3.84v3.51c0,.82.04,1.61.15,2.25h-1.55Zm-.25-4.79c-1.86-.04-3.98.29-3.98,2.12,0,1.11.74,1.63,1.61,1.63,1.22,0,2-.78,2.27-1.57.06-.18.1-.37.1-.54v-1.63Z"/><path class="b" d="m25.62,23v2.7h2.45v1.3h-2.45v5.07c0,1.16.33,1.83,1.28,1.83.45,0,.78-.06.99-.12l.08,1.28c-.33.14-.85.23-1.51.23-.8,0-1.44-.25-1.84-.72-.49-.5-.66-1.34-.66-2.45v-5.12h-1.46v-1.3h1.46v-2.25l1.67-.45Z"/><path class="b" d="m29.99,21.31h1.71v5.86h.04c.27-.49.7-.91,1.22-1.2.5-.29,1.11-.49,1.75-.49,1.26,0,3.28.78,3.28,4.02v5.59h-1.71v-5.4c0-1.51-.56-2.8-2.18-2.8-1.11,0-1.98.78-2.29,1.71-.1.23-.12.49-.12.82v5.67h-1.71v-13.78Z"/></g><g><path class="d" d="m2.28,10.56c1.35,0,1.54-.74,1.54-1.41,0-.53-.08-1.07-.15-1.6s-.15-1.05-.15-1.58c0-1.75,1.14-2.5,2.76-2.5h.4v1.05h-.34c-1.13,0-1.51.61-1.51,1.64,0,.44.06.9.13,1.35.08.48.13.93.13,1.45.02,1.22-.51,1.83-1.37,2.06v.04c.86.21,1.39.86,1.37,2.08,0,.51-.06.99-.13,1.45-.08.48-.13.92-.13,1.37,0,1.07.44,1.66,1.51,1.66h.34v1.05h-.4c-1.58,0-2.76-.69-2.76-2.61,0-.51.08-1.05.15-1.56s.15-1.03.15-1.54c0-.59-.19-1.41-1.54-1.41v-.97Z"/><path class="d" d="m20.57,12.26c-.11-2.13-.25-4.7-.23-6.61h-.07c-.52,1.79-1.16,3.7-1.93,5.81l-2.7,7.42h-1.5l-2.47-7.29c-.73-2.16-1.34-4.13-1.77-5.95h-.05c-.05,1.91-.16,4.47-.3,6.76l-.41,6.56h-1.88l1.07-15.3h2.52l2.61,7.4c.64,1.88,1.16,3.56,1.54,5.15h.07c.39-1.54.93-3.22,1.61-5.15l2.72-7.4h2.52l.95,15.3h-1.93l-.39-6.72Z"/><path class="c" d="m33.13,18.45c-.72.36-2.17.72-4.01.72-4.28,0-7.51-2.71-7.51-7.69s3.23-7.98,7.94-7.98c1.89,0,3.09.41,3.61.68l-.47,1.6c-.75-.36-1.81-.63-3.07-.63-3.56,0-5.93,2.28-5.93,6.27,0,3.72,2.14,6.11,5.84,6.11,1.2,0,2.41-.25,3.2-.63l.41,1.56Z"/><path class="d" d="m38.77,11.54c-1.35,0-1.54.82-1.54,1.41,0,.51.08,1.03.15,1.54.08.51.15,1.05.15,1.56,0,1.93-1.2,2.61-2.76,2.61h-.4v-1.05h.32c1.07-.02,1.52-.59,1.52-1.66,0-.46-.08-.9-.13-1.37-.08-.46-.15-.93-.15-1.45,0-1.22.53-1.87,1.37-2.08v-.04c-.84-.23-1.37-.84-1.37-2.06,0-.51.08-.97.15-1.45.06-.46.13-.92.13-1.35,0-1.03-.4-1.62-1.51-1.64h-.34v-1.05h.38c1.62,0,2.78.74,2.78,2.5,0,.53-.08,1.05-.15,1.58-.08.53-.15,1.07-.15,1.6,0,.67.19,1.41,1.54,1.41v.97Z"/></g></svg>